<svg width="19" height="21" viewBox="0 0 19 21" fill="none" xmlns="http://www.w3.org/2000/svg">
<path d="M9.34581 20.559C9.68279 20.5588 10.0164 20.4923 10.3277 20.3633C10.639 20.2342 10.9218 20.0451 11.16 19.8067C11.3981 19.5683 11.587 19.2854 11.7159 18.974C11.8447 18.6626 11.9109 18.3289 11.9108 17.992H6.78082C6.78068 18.3289 6.84693 18.6626 6.97576 18.974C7.10459 19.2854 7.29349 19.5683 7.53167 19.8067C7.76985 20.0451 8.05265 20.2342 8.36392 20.3633C8.6752 20.4923 9.00884 20.5588 9.34581 20.559ZM17.9838 14.559C17.2088 13.727 15.7628 12.471 15.7628 8.36797C15.7638 6.89622 15.2521 5.4701 14.3158 4.33464C13.3794 3.19919 12.0768 2.4253 10.6318 2.14597V1.30997C10.6318 0.969826 10.4967 0.643617 10.2562 0.403101C10.0157 0.162586 9.68946 0.0274658 9.34931 0.0274658C9.00917 0.0274658 8.68297 0.162586 8.44245 0.403101C8.20194 0.643617 8.06682 0.969826 8.06682 1.30997V2.14597C6.62127 2.42469 5.31799 3.1983 4.38103 4.33382C3.44408 5.46933 2.93199 6.8958 2.93282 8.36797C2.93282 12.468 1.48282 13.723 0.708815 14.555C0.484915 14.7899 0.360879 15.1025 0.362815 15.427C0.362946 15.5958 0.396354 15.7629 0.461127 15.9187C0.525901 16.0746 0.620769 16.2161 0.740304 16.3353C0.859839 16.4545 1.0017 16.5489 1.15776 16.6132C1.31382 16.6775 1.48103 16.7104 1.64982 16.71H17.0418C17.2106 16.7104 17.3778 16.6775 17.5339 16.6132C17.6899 16.5489 17.8318 16.4545 17.9513 16.3353C18.0709 16.2161 18.1657 16.0746 18.2305 15.9187C18.2953 15.7629 18.3287 15.5958 18.3288 15.427C18.3309 15.1029 18.2072 14.7907 17.9838 14.556V14.559Z" fill="white"/>
</svg>
