<svg width="31" height="31" viewBox="0 0 31 31" fill="none" xmlns="http://www.w3.org/2000/svg">
<path d="M27.1699 0.708008H3.16992C2.37687 0.711973 1.61766 1.02979 1.05829 1.59197C0.498923 2.15415 0.184912 2.91495 0.184922 3.70801L0.169922 30.708L6.16992 24.708H27.1699C27.9648 24.7056 28.7265 24.3888 29.2886 23.8267C29.8507 23.2646 30.1675 22.5029 30.1699 21.708V3.70801C30.1675 2.91309 29.8507 2.15141 29.2886 1.58931C28.7265 1.02721 27.9648 0.710382 27.1699 0.708008ZM24.1699 18.708H6.16992V15.708H24.1699V18.708ZM24.1699 14.208H6.16992V11.208H24.1699V14.208ZM24.1699 9.70801H6.16992V6.70801H24.1699V9.70801Z" fill="#0A122A"/>
</svg>
