<svg width="32" height="32" viewBox="0 0 32 32" fill="none" xmlns="http://www.w3.org/2000/svg">
<path d="M30.5421 22.32L23.8521 19.453C23.5662 19.3311 23.2485 19.3054 22.9468 19.3797C22.6451 19.454 22.3756 19.6243 22.1791 19.865L19.2161 23.485C14.5656 21.293 10.8229 17.551 8.63008 12.901L12.2501 9.938C12.4913 9.74183 12.662 9.4724 12.7363 9.17052C12.8107 8.86863 12.7846 8.55074 12.6621 8.265L9.79608 1.575C9.66171 1.26699 9.42405 1.01553 9.12411 0.864004C8.82416 0.71248 8.48074 0.670391 8.15308 0.745001L1.94108 2.178C1.62526 2.25101 1.34349 2.42887 1.14173 2.68257C0.939968 2.93628 0.830112 3.25085 0.830078 3.575C0.829684 7.21496 1.54634 10.8193 2.93911 14.1823C4.33188 17.5453 6.37348 20.6009 8.94732 23.1748C11.5212 25.7486 14.5768 27.7902 17.9398 29.183C21.3027 30.5757 24.9071 31.2924 28.5471 31.292C28.8717 31.2926 29.187 31.1831 29.4413 30.9813C29.6956 30.7795 29.874 30.4973 29.9471 30.181L31.3811 23.969C31.4551 23.6397 31.4121 23.2949 31.2593 22.9939C31.1065 22.6929 30.8536 22.4546 30.5441 22.32H30.5421Z" fill="#0A122A"/>
</svg>
