<svg width="19" height="25" viewBox="0 0 19 25" fill="none" xmlns="http://www.w3.org/2000/svg">
<path d="M16.8771 0.151018L15.0771 2.25102L12.5271 0.151018C12.3977 0.0528746 12.2396 -0.000244141 12.0771 -0.000244141C11.9147 -0.000244141 11.7566 0.0528746 11.6271 0.151018L9.07715 2.25102L6.52615 0.151018C6.39666 0.0528746 6.23863 -0.000244141 6.07615 -0.000244141C5.91367 -0.000244141 5.75564 0.0528746 5.62615 0.151018L3.07715 2.25102L1.27715 0.151018C1.16572 0.0674473 1.03322 0.0165567 0.894503 0.00404822C0.755781 -0.00846026 0.616318 0.0179076 0.491738 0.0801973C0.367159 0.142487 0.262386 0.238237 0.18916 0.356719C0.115934 0.475201 0.0771484 0.611734 0.0771484 0.751018L0.0771484 23.251C0.0771484 23.3903 0.115934 23.5268 0.18916 23.6453C0.262386 23.7638 0.367159 23.8595 0.491738 23.9218C0.616318 23.9841 0.755781 24.0105 0.894503 23.998C1.03322 23.9855 1.16572 23.9346 1.27715 23.851L3.07715 21.751L5.62715 23.851C5.75664 23.9492 5.91467 24.0023 6.07715 24.0023C6.23963 24.0023 6.39766 23.9492 6.52715 23.851L9.07715 21.749L11.6271 23.849C11.7566 23.9472 11.9147 24.0003 12.0771 24.0003C12.2396 24.0003 12.3977 23.9472 12.5271 23.849L15.0771 21.749L16.8771 23.849C16.9886 23.9326 17.1211 23.9835 17.2598 23.996C17.3985 24.0085 17.538 23.9821 17.6626 23.9198C17.7871 23.8575 17.8919 23.7618 17.9651 23.6433C18.0384 23.5248 18.0771 23.3883 18.0771 23.249V0.751018C18.0771 0.611734 18.0384 0.475201 17.9651 0.356719C17.8919 0.238237 17.7871 0.142487 17.6626 0.0801973C17.538 0.0179076 17.3985 -0.00846026 17.2598 0.00404822C17.1211 0.0165567 16.9886 0.0674473 16.8771 0.151018ZM15.0771 16.875C15.0769 16.9744 15.0373 17.0696 14.967 17.1399C14.8968 17.2102 14.8015 17.2498 14.7021 17.25H3.45215C3.35277 17.2498 3.25754 17.2102 3.18727 17.1399C3.11701 17.0696 3.07741 16.9744 3.07715 16.875V16.125C3.07741 16.0256 3.11701 15.9304 3.18727 15.8601C3.25754 15.7899 3.35277 15.7503 3.45215 15.75H14.7011C14.8005 15.7503 14.8958 15.7899 14.966 15.8601C15.0363 15.9304 15.0759 16.0256 15.0761 16.125L15.0771 16.875ZM15.0771 12.375C15.0769 12.4744 15.0373 12.5696 14.967 12.6399C14.8968 12.7102 14.8015 12.7498 14.7021 12.75H3.45215C3.35277 12.7498 3.25754 12.7102 3.18727 12.6399C3.11701 12.5696 3.07741 12.4744 3.07715 12.375V11.625C3.07741 11.5256 3.11701 11.4304 3.18727 11.3601C3.25754 11.2899 3.35277 11.2503 3.45215 11.25H14.7011C14.8005 11.2503 14.8958 11.2899 14.966 11.3601C15.0363 11.4304 15.0759 11.5256 15.0761 11.625L15.0771 12.375ZM15.0771 7.87502C15.0769 7.97439 15.0373 8.06962 14.967 8.13989C14.8968 8.21016 14.8015 8.24975 14.7021 8.25002H3.45215C3.35295 8.24976 3.25787 8.2103 3.18763 8.14025C3.11739 8.07019 3.07768 7.97522 3.07715 7.87602V7.12602C3.07741 7.02664 3.11701 6.93141 3.18727 6.86114C3.25754 6.79087 3.35277 6.75128 3.45215 6.75102H14.7011C14.8007 6.75102 14.8962 6.79049 14.9667 6.86079C15.0372 6.93109 15.0769 7.02647 15.0771 7.12602V7.87502Z" fill="#8AB3C9"/>
</svg>
